<?xml version="1.0" encoding="utf-8"?>
<svg version="1.1" width="600px" height="600px" style="shape-rendering:geometricPrecision; text-rendering:geometricPrecision; image-rendering:optimizeQuality; fill-rule:evenodd; clip-rule:evenodd" xmlns="http://www.w3.org/2000/svg">
  <defs>
    <linearGradient gradientUnits="userSpaceOnUse" x1="161.5" y1="426.44" x2="161.5" y2="579.587" id="gradient-1">
      <stop offset="0" style="stop-color: rgb(57, 57, 57);"/>
      <stop offset="1" style=""/>
    </linearGradient>
    <linearGradient gradientUnits="userSpaceOnUse" x1="437.5" y1="426.443" x2="437.5" y2="579.587" id="gradient-2">
      <stop offset="0" style="stop-color: rgb(22.353% 22.353% 22.353%)"/>
      <stop offset="1" style=""/>
    </linearGradient>
    <linearGradient gradientUnits="userSpaceOnUse" x1="209.124" y1="424.664" x2="209.124" y2="594.5" id="gradient-3">
      <stop offset="0" style="stop-color: rgb(57, 57, 57);"/>
      <stop offset="1" style=""/>
    </linearGradient>
    <linearGradient gradientUnits="userSpaceOnUse" x1="389.876" y1="425.392" x2="389.876" y2="594.5" id="gradient-4">
      <stop offset="0" style="stop-color: rgb(57, 57, 57);"/>
      <stop offset="1" style=""/>
    </linearGradient>
    <linearGradient gradientUnits="userSpaceOnUse" x1="301.473" y1="196.434" x2="301.473" y2="285.015" id="gradient-6">
      <stop offset="0" style="stop-color: rgb(74.902% 60.784% 18.824%)"/>
      <stop offset="1" style="stop-color: rgb(166, 124, 0);"/>
    </linearGradient>
    <linearGradient gradientUnits="userSpaceOnUse" x1="299" y1="461.5" x2="299" y2="599.5" id="gradient-0">
      <stop offset="0" style="stop-color: rgb(57, 57, 57);"/>
      <stop offset="1" style="stop-color: rgb(0% 0% 0%)"/>
    </linearGradient>
  </defs>
  <g>
    <path style="opacity: 0.998; fill: rgb(0, 130, 221);" d="M 276.5,-0.5 C 291.833,-0.5 307.167,-0.5 322.5,-0.5C 428.855,11.0629 509.021,62.7296 563,154.5C 583.183,192.539 595.35,232.872 599.5,275.5C 599.5,291.5 599.5,307.5 599.5,323.5C 591.924,401.649 559.591,467.315 502.5,520.5C 477.897,465.903 435.897,434.57 376.5,426.5C 374.393,425.532 372.059,425.198 369.5,425.5C 363.69,424.51 357.69,424.177 351.5,424.5C 351.5,413.5 351.5,402.5 351.5,391.5C 385.657,376.826 408.157,351.492 419,315.5C 421.34,306.984 422.507,298.317 422.5,289.5C 431.089,286.745 436.922,281.079 440,272.5C 440.828,257.661 440.661,242.994 439.5,228.5C 439.5,227.833 439.5,227.167 439.5,226.5C 440.994,221.101 440.827,215.768 439,210.5C 433.729,207.785 428.229,205.452 422.5,203.5C 421.548,201.955 421.215,200.288 421.5,198.5C 424.737,172.374 423.904,146.374 419,120.5C 415.412,104.485 407.579,90.9845 395.5,80C 388.271,73.8042 380.771,67.9709 373,62.5C 372.333,60.1667 372.333,57.8333 373,55.5C 375.208,52.1496 375.708,48.6496 374.5,45C 372.833,44.3333 371.167,44.3333 369.5,45C 364.952,47.1273 360.285,48.9606 355.5,50.5C 354.804,48.0081 355.137,45.5081 356.5,43C 356.333,41.5 355.5,40.6667 354,40.5C 348.163,42.5018 342.663,45.1685 337.5,48.5C 337.167,48.3333 336.833,48.1667 336.5,48C 338.681,45.3065 340.348,42.3065 341.5,39C 341.138,37.1147 339.971,36.2814 338,36.5C 328.489,40.6726 318.655,43.8393 308.5,46C 293.892,48.0859 279.225,49.7525 264.5,51C 236.959,55.0185 214.125,67.5185 196,88.5C 182.105,107.852 174.771,129.518 174,153.5C 173.224,170.525 173.391,187.525 174.5,204.5C 170.961,207.525 167.128,210.192 163,212.5C 162.502,215.482 162.335,218.482 162.5,221.5C 161.108,223.273 159.941,225.273 159,227.5C 158.333,242.5 158.333,257.5 159,272.5C 162.731,282.74 169.897,288.74 180.5,290.5C 184.379,336.665 207.045,369.665 248.5,389.5C 248.5,391.5 248.5,393.5 248.5,395.5C 248.5,405.5 248.5,415.5 248.5,425.5C 248.167,425.5 247.833,425.5 247.5,425.5C 238.451,424.116 229.451,424.45 220.5,426.5C 172.263,433.252 134.763,456.919 108,497.5C 103.628,504.91 99.7951,512.577 96.5,520.5C 53.3837,481.319 24.217,433.319 9,376.5C 4.57968,358.913 1.41301,341.246 -0.5,323.5C -0.5,307.5 -0.5,291.5 -0.5,275.5C 10.8301,172.756 60.1634,94.2558 147.5,40C 187.733,17.3092 230.733,3.80925 276.5,-0.5 Z"/>
  </g>
  <g>
    <path style="opacity:1" fill="#2c1b18" d="M 421.5,198.5 C 420.566,199.568 420.232,200.901 420.5,202.5C 418.035,202.233 415.701,201.566 413.5,200.5C 411.964,189.181 410.464,177.848 409,166.5C 404.559,144.404 392.726,127.571 373.5,116C 368.126,111.228 363.46,105.895 359.5,100C 357.833,99.8333 356.167,99.6667 354.5,99.5C 347.568,100.828 340.568,101.661 333.5,102C 300.167,102.333 266.833,102.667 233.5,103C 223.312,114.851 212.812,126.351 202,137.5C 191.009,157.796 184.843,179.462 183.5,202.5C 180.598,203.578 177.598,204.244 174.5,204.5C 173.391,187.525 173.224,170.525 174,153.5C 174.771,129.518 182.105,107.852 196,88.5C 214.125,67.5185 236.959,55.0185 264.5,51C 279.225,49.7525 293.892,48.0859 308.5,46C 318.655,43.8393 328.489,40.6726 338,36.5C 339.971,36.2814 341.138,37.1147 341.5,39C 340.348,42.3065 338.681,45.3065 336.5,48C 336.833,48.1667 337.167,48.3333 337.5,48.5C 342.663,45.1685 348.163,42.5018 354,40.5C 355.5,40.6667 356.333,41.5 356.5,43C 355.137,45.5081 354.804,48.0081 355.5,50.5C 360.285,48.9606 364.952,47.1273 369.5,45C 371.167,44.3333 372.833,44.3333 374.5,45C 375.708,48.6496 375.208,52.1496 373,55.5C 372.333,57.8333 372.333,60.1667 373,62.5C 380.771,67.9709 388.271,73.8042 395.5,80C 407.579,90.9845 415.412,104.485 419,120.5C 423.904,146.374 424.737,172.374 421.5,198.5 Z"/>
  </g>
  <g>
    <path style="opacity:1" fill="#cf8a5a" d="M 413.5,200.5 C 402.181,198.883 390.848,197.549 379.5,196.5C 369.455,190.573 358.455,187.906 346.5,188.5C 341.765,188.469 337.099,188.969 332.5,190C 328.263,193.521 328.597,196.355 333.5,198.5C 339.605,196.812 345.605,196.478 351.5,197.5C 336.701,197.866 322.701,201.366 309.5,208C 304.167,208.667 298.833,208.667 293.5,208C 284.871,203.681 275.871,200.515 266.5,198.5C 270.486,195.849 270.486,193.015 266.5,190C 254.425,187.791 242.425,188.125 230.5,191C 226.05,192.061 222.05,193.895 218.5,196.5C 206.607,197.315 194.941,199.315 183.5,202.5C 184.843,179.462 191.009,157.796 202,137.5C 212.812,126.351 223.312,114.851 233.5,103C 266.833,102.667 300.167,102.333 333.5,102C 340.568,101.661 347.568,100.828 354.5,99.5C 356.167,99.6667 357.833,99.8333 359.5,100C 363.46,105.895 368.126,111.228 373.5,116C 392.726,127.571 404.559,144.404 409,166.5C 410.464,177.848 411.964,189.181 413.5,200.5 Z"/>
  </g>
  <g>
    <path style="opacity:1" fill="#573a26" d="M 266.5,198.5 C 250.538,197.02 234.538,196.353 218.5,196.5C 222.05,193.895 226.05,192.061 230.5,191C 242.425,188.125 254.425,187.791 266.5,190C 270.486,193.015 270.486,195.849 266.5,198.5 Z"/>
  </g>
  <g>
    <path style="opacity:1" fill="#553825" d="M 379.5,196.5 C 370.134,196.279 360.801,196.613 351.5,197.5C 345.605,196.478 339.605,196.812 333.5,198.5C 328.597,196.355 328.263,193.521 332.5,190C 337.099,188.969 341.765,188.469 346.5,188.5C 358.455,187.906 369.455,190.573 379.5,196.5 Z"/>
  </g>
  <g>
    <path style="opacity: 1; fill: url('#gradient-6');" d="M 218.5,196.5 C 234.538,196.353 250.538,197.02 266.5,198.5C 275.871,200.515 284.871,203.681 293.5,208C 298.833,208.667 304.167,208.667 309.5,208C 322.701,201.366 336.701,197.866 351.5,197.5C 360.801,196.613 370.134,196.279 379.5,196.5C 390.848,197.549 402.181,198.883 413.5,200.5C 415.701,201.566 418.035,202.233 420.5,202.5C 420.232,200.901 420.566,199.568 421.5,198.5C 421.215,200.288 421.548,201.955 422.5,203.5C 428.229,205.452 433.729,207.785 439,210.5C 440.827,215.768 440.994,221.101 439.5,226.5C 434.061,227.066 428.728,228.066 423.5,229.5C 422.883,229.611 422.383,229.944 422,230.5C 422.596,241.326 420.762,251.659 416.5,261.5C 403.303,278.028 385.97,285.694 364.5,284.5C 348.05,285.742 334.216,280.409 323,268.5C 320.536,264.566 318.369,260.566 316.5,256.5C 315.062,249.245 314.395,241.912 314.5,234.5C 314.714,232.856 314.38,231.356 313.5,230C 305.347,226.66 297.347,226.826 289.5,230.5C 288.571,231.689 288.238,233.022 288.5,234.5C 288.659,241.589 287.993,248.589 286.5,255.5C 277.178,273.518 262.178,283.018 241.5,284C 225.267,286.803 210.267,283.803 196.5,275C 193.246,272.253 190.58,269.086 188.5,265.5C 186.486,262.806 184.986,259.806 184,256.5C 182.049,248.292 181.049,239.959 181,231.5C 180.617,230.944 180.117,230.611 179.5,230.5C 178.158,229.207 176.491,228.374 174.5,228C 169.948,228.239 165.948,227.072 162.5,224.5C 162.5,223.5 162.5,222.5 162.5,221.5C 162.335,218.482 162.502,215.482 163,212.5C 167.128,210.192 170.961,207.525 174.5,204.5C 177.598,204.244 180.598,203.578 183.5,202.5C 194.941,199.315 206.607,197.315 218.5,196.5 Z"/>
  </g>
  <g>
    <path style="opacity:1" fill="#a9714a" d="M 279.5,230.5 C 276.686,224.187 272.019,219.687 265.5,217C 250.352,213.63 235.018,212.63 219.5,214C 211.557,214.537 204.224,216.87 197.5,221C 194.488,224.154 192.155,227.654 190.5,231.5C 191.414,221.748 196.581,215.415 206,212.5C 207.144,212.911 208.311,213.244 209.5,213.5C 211.839,211.68 214.506,210.513 217.5,210C 230.86,209.254 244.193,209.587 257.5,211C 269.777,212.119 277.111,218.619 279.5,230.5 Z"/>
  </g>
  <g>
    <path style="opacity:1" fill="#a8714a" d="M 411.5,228.5 C 408.603,223.106 404.27,219.273 398.5,217C 383.363,213.601 368.03,212.601 352.5,214C 342.632,214.395 334.132,217.895 327,224.5C 326.059,226.727 324.892,228.727 323.5,230.5C 324.611,221.883 329.277,216.05 337.5,213C 347.277,210.093 357.277,208.926 367.5,209.5C 373.167,209.667 378.833,209.833 384.5,210C 387.166,213.961 390.332,214.461 394,211.5C 403.709,213.378 409.542,219.044 411.5,228.5 Z"/>
  </g>
  <g>
    <path style="opacity:1" fill="#ce895a" d="M 279.5,230.5 C 283.485,254.015 273.819,268.515 250.5,274C 238.883,275.554 227.216,275.887 215.5,275C 202.852,272.351 194.686,264.851 191,252.5C 190.5,245.508 190.334,238.508 190.5,231.5C 192.155,227.654 194.488,224.154 197.5,221C 204.224,216.87 211.557,214.537 219.5,214C 235.018,212.63 250.352,213.63 265.5,217C 272.019,219.687 276.686,224.187 279.5,230.5 Z"/>
  </g>
  <g>
    <path style="opacity:1" fill="#ce8a5a" d="M 411.5,228.5 C 416.904,252.619 407.57,267.785 383.5,274C 371.883,275.554 360.216,275.887 348.5,275C 335.852,272.351 327.686,264.851 324,252.5C 323.5,245.174 323.334,237.841 323.5,230.5C 324.892,228.727 326.059,226.727 327,224.5C 334.132,217.895 342.632,214.395 352.5,214C 368.03,212.601 383.363,213.601 398.5,217C 404.27,219.273 408.603,223.106 411.5,228.5 Z"/>
  </g>
  <g>
    <path style="opacity:1" fill="#cd895a" d="M 162.5,221.5 C 162.5,222.5 162.5,223.5 162.5,224.5C 162.081,227.325 163.081,229.491 165.5,231C 170.495,231.036 175.161,232.202 179.5,234.5C 180.497,252.993 180.83,271.659 180.5,290.5C 169.897,288.74 162.731,282.74 159,272.5C 158.333,257.5 158.333,242.5 159,227.5C 159.941,225.273 161.108,223.273 162.5,221.5 Z"/>
  </g>
  <g>
    <path style="opacity:1" fill="#aa724b" d="M 162.5,224.5 C 165.948,227.072 169.948,228.239 174.5,228C 176.491,228.374 178.158,229.207 179.5,230.5C 179.5,231.833 179.5,233.167 179.5,234.5C 175.161,232.202 170.495,231.036 165.5,231C 163.081,229.491 162.081,227.325 162.5,224.5 Z"/>
  </g>
  <g>
    <path style="opacity:1" fill="#ab734b" d="M 439.5,226.5 C 439.5,227.167 439.5,227.833 439.5,228.5C 439.423,229.75 438.756,230.583 437.5,231C 432.678,231.218 428.012,232.051 423.5,233.5C 423.5,232.167 423.5,230.833 423.5,229.5C 428.728,228.066 434.061,227.066 439.5,226.5 Z"/>
  </g>
  <g>
    <path style="opacity:1" fill="#553824" d="M 232.5,226.5 C 243.896,225.626 253.062,229.626 260,238.5C 261.364,252.471 255.197,257.971 241.5,255C 235.34,249.9 234.007,243.733 237.5,236.5C 229.226,235.59 221.893,237.923 215.5,243.5C 213.899,242.965 213.399,241.965 214,240.5C 218.321,233.339 224.488,228.673 232.5,226.5 Z"/>
  </g>
  <g>
    <path style="opacity:1" fill="#ab734b" d="M 314.5,234.5 C 305.791,230.625 297.124,230.625 288.5,234.5C 288.238,233.022 288.571,231.689 289.5,230.5C 297.347,226.826 305.347,226.66 313.5,230C 314.38,231.356 314.714,232.856 314.5,234.5 Z"/>
  </g>
  <g>
    <path style="opacity:1" fill="#563925" d="M 356.5,226.5 C 367.038,225.527 375.871,228.86 383,236.5C 386.682,242.914 385.849,248.747 380.5,254C 371.397,258.847 364.564,256.68 360,247.5C 359.071,243.756 359.571,240.256 361.5,237C 353.272,236.019 345.939,238.186 339.5,243.5C 338.337,241.45 338.504,239.45 340,237.5C 344.344,231.924 349.844,228.257 356.5,226.5 Z"/>
  </g>
  <g>
    <path style="opacity:1" fill="#cb8859" d="M 439.5,228.5 C 440.661,242.994 440.828,257.661 440,272.5C 436.922,281.079 431.089,286.745 422.5,289.5C 422.247,270.813 422.58,252.146 423.5,233.5C 428.012,232.051 432.678,231.218 437.5,231C 438.756,230.583 439.423,229.75 439.5,228.5 Z"/>
  </g>
  <g>
    <path style="opacity:1" fill="#2d1b18" d="M 423.5,229.5 C 423.5,230.833 423.5,232.167 423.5,233.5C 422.58,252.146 422.247,270.813 422.5,289.5C 422.507,298.317 421.34,306.984 419,315.5C 408.157,351.492 385.657,376.826 351.5,391.5C 351.167,391.5 350.833,391.5 350.5,391.5C 334.991,396.235 319.157,399.235 303,400.5C 284.233,399.766 266.067,396.1 248.5,389.5C 207.045,369.665 184.379,336.665 180.5,290.5C 180.83,271.659 180.497,252.993 179.5,234.5C 179.5,233.167 179.5,231.833 179.5,230.5C 180.117,230.611 180.617,230.944 181,231.5C 181.049,239.959 182.049,248.292 184,256.5C 184.986,259.806 186.486,262.806 188.5,265.5C 187.566,266.568 187.232,267.901 187.5,269.5C 187.766,282.436 190.6,294.77 196,306.5C 198.139,309.939 200.639,313.106 203.5,316C 210.044,320.773 217.044,324.773 224.5,328C 228.225,328.76 231.892,328.593 235.5,327.5C 239.275,320.365 242.775,313.032 246,305.5C 253.246,297.928 262.08,293.428 272.5,292C 278.491,291.501 284.491,291.334 290.5,291.5C 294.298,292.1 297.965,293.434 301.5,295.5C 303.396,294.725 305.063,293.725 306.5,292.5C 322.528,289.272 337.528,291.772 351.5,300C 358.105,305.706 362.272,312.873 364,321.5C 366.253,328.106 370.753,330.273 377.5,328C 395.261,323.239 406.761,312.072 412,294.5C 413.494,287.204 414.661,279.871 415.5,272.5C 416.482,269.038 416.815,265.371 416.5,261.5C 420.762,251.659 422.596,241.326 422,230.5C 422.383,229.944 422.883,229.611 423.5,229.5 Z"/>
  </g>
  <g>
    <path style="opacity:1" fill="#ce8a5a" d="M 314.5,234.5 C 314.395,241.912 315.062,249.245 316.5,256.5C 320.846,274.34 332.18,284.84 350.5,288C 369.142,290.386 386.809,287.386 403.5,279C 408,275.833 411.833,272 415,267.5C 415.494,269.134 415.66,270.801 415.5,272.5C 414.661,279.871 413.494,287.204 412,294.5C 406.761,312.072 395.261,323.239 377.5,328C 370.753,330.273 366.253,328.106 364,321.5C 362.272,312.873 358.105,305.706 351.5,300C 337.528,291.772 322.528,289.272 306.5,292.5C 312.845,289.16 316.179,283.827 316.5,276.5C 305.144,279.003 293.81,279.003 282.5,276.5C 282.841,282.853 285.507,287.853 290.5,291.5C 284.491,291.334 278.491,291.501 272.5,292C 262.08,293.428 253.246,297.928 246,305.5C 242.775,313.032 239.275,320.365 235.5,327.5C 231.892,328.593 228.225,328.76 224.5,328C 217.044,324.773 210.044,320.773 203.5,316C 200.639,313.106 198.139,309.939 196,306.5C 190.6,294.77 187.766,282.436 187.5,269.5C 195.317,279.747 205.651,285.914 218.5,288C 238.229,290.971 256.563,287.304 273.5,277C 280.533,271.428 284.866,264.262 286.5,255.5C 287.993,248.589 288.659,241.589 288.5,234.5C 297.124,230.625 305.791,230.625 314.5,234.5 Z"/>
  </g>
  <g>
    <path style="opacity:1" fill="#ac734b" d="M 286.5,255.5 C 284.866,264.262 280.533,271.428 273.5,277C 256.563,287.304 238.229,290.971 218.5,288C 205.651,285.914 195.317,279.747 187.5,269.5C 187.232,267.901 187.566,266.568 188.5,265.5C 190.58,269.086 193.246,272.253 196.5,275C 210.267,283.803 225.267,286.803 241.5,284C 262.178,283.018 277.178,273.518 286.5,255.5 Z"/>
  </g>
  <g>
    <path style="opacity:1" fill="#a9714a" d="M 316.5,256.5 C 318.369,260.566 320.536,264.566 323,268.5C 334.216,280.409 348.05,285.742 364.5,284.5C 385.97,285.694 403.303,278.028 416.5,261.5C 416.815,265.371 416.482,269.038 415.5,272.5C 415.66,270.801 415.494,269.134 415,267.5C 411.833,272 408,275.833 403.5,279C 386.809,287.386 369.142,290.386 350.5,288C 332.18,284.84 320.846,274.34 316.5,256.5 Z"/>
  </g>
  <g>
    <path style="opacity:1" fill="#af754c" d="M 306.5,292.5 C 305.063,293.725 303.396,294.725 301.5,295.5C 297.965,293.434 294.298,292.1 290.5,291.5C 285.507,287.853 282.841,282.853 282.5,276.5C 293.81,279.003 305.144,279.003 316.5,276.5C 316.179,283.827 312.845,289.16 306.5,292.5 Z"/>
  </g>
  <g>
    <path style="opacity:1" fill="#ce895a" d="M 299.5,306.5 C 302.425,306.46 305.091,307.293 307.5,309C 316.833,309.333 326.167,309.667 335.5,310C 344.807,313.31 350.64,319.81 353,329.5C 354.606,345.456 348.773,357.956 335.5,367C 327.42,372.55 320.42,371.55 314.5,364C 302.23,357.729 291.563,359.729 282.5,370C 277.06,371.174 272.06,370.174 267.5,367C 259.358,360.862 253.525,353.028 250,343.5C 248.129,331.447 251.629,321.28 260.5,313C 262.717,311.725 265.051,310.725 267.5,310C 275.833,309.667 284.167,309.333 292.5,309C 295.191,308.844 297.524,308.011 299.5,306.5 Z"/>
  </g>
  <g>
    <path style="opacity:1" fill="#573a26" d="M 271.5,316.5 C 272.873,316.343 274.207,316.51 275.5,317C 281.548,328.856 291.214,333.522 304.5,331C 313.167,330.6 319,326.434 322,318.5C 324.244,316.006 326.577,316.006 329,318.5C 329.3,328.566 324.466,335.066 314.5,338C 302.551,341.803 290.884,341.136 279.5,336C 271.011,331.561 268.344,325.061 271.5,316.5 Z"/>
  </g>
  <g>
    <path style="opacity:1" fill="#9d6944" d="M 248.5,389.5 C 266.067,396.1 284.233,399.766 303,400.5C 319.157,399.235 334.991,396.235 350.5,391.5C 350.5,393.833 350.5,396.167 350.5,398.5C 326.791,413.09 301.457,416.59 274.5,409C 265.083,405.793 256.416,401.293 248.5,395.5C 248.5,393.5 248.5,391.5 248.5,389.5 Z"/>
  </g>
  <g>
    <path style="opacity:1" fill="#d08b5b" d="M 248.5,395.5 C 256.416,401.293 265.083,405.793 274.5,409C 301.457,416.59 326.791,413.09 350.5,398.5C 350.5,409.833 350.5,421.167 350.5,432.5C 347.021,439.478 341.687,444.645 334.5,448C 312.726,455.808 290.726,456.474 268.5,450C 259.438,446.763 252.771,440.93 248.5,432.5C 248.5,430.167 248.5,427.833 248.5,425.5C 248.5,415.5 248.5,405.5 248.5,395.5 Z"/>
  </g>
  <g>
    <path style="opacity: 1; fill: url('#gradient-3');" d="M 247.5,425.5 C 248.163,482.177 247.496,538.51 245.5,594.5C 226.801,591.661 208.801,586.661 191.5,579.5C 192.978,579.762 194.311,579.429 195.5,578.5C 203.043,568.128 210.376,557.628 217.5,547C 201.826,537.164 186.16,527.331 170.5,517.5C 189.292,487.417 207.959,457.25 226.5,427C 224.527,426.505 222.527,426.338 220.5,426.5C 229.451,424.45 238.451,424.116 247.5,425.5 Z"/>
  </g>
  <g>
    <path style="opacity: 1; fill: url('#gradient-4');" d="M 369.5,425.5 C 372.059,425.198 374.393,425.532 376.5,426.5C 375.127,426.343 373.793,426.51 372.5,427C 391.365,457.034 410.031,487.201 428.5,517.5C 412.84,527.331 397.174,537.164 381.5,547C 388.624,557.628 395.957,568.128 403.5,578.5C 404.689,579.429 406.022,579.762 407.5,579.5C 390.199,586.661 372.199,591.661 353.5,594.5C 351.504,538.51 350.837,482.177 351.5,425.5C 357.5,425.5 363.5,425.5 369.5,425.5 Z"/>
  </g>
  <g>
    <path style="opacity: 1; fill: url('#gradient-1');" d="M 220.5,426.5 C 222.527,426.338 224.527,426.505 226.5,427C 207.959,457.25 189.292,487.417 170.5,517.5C 186.16,527.331 201.826,537.164 217.5,547C 210.376,557.628 203.043,568.128 195.5,578.5C 194.311,579.429 192.978,579.762 191.5,579.5C 155.739,566.135 124.072,546.468 96.5,520.5C 99.7951,512.577 103.628,504.91 108,497.5C 134.763,456.919 172.263,433.252 220.5,426.5 Z"/>
  </g>
  <g>
    <path style="opacity: 1; fill: url('#gradient-2');" d="M 376.5,426.5 C 435.897,434.57 477.897,465.903 502.5,520.5C 474.928,546.468 443.261,566.135 407.5,579.5C 406.022,579.762 404.689,579.429 403.5,578.5C 395.957,568.128 388.624,557.628 381.5,547C 397.174,537.164 412.84,527.331 428.5,517.5C 410.031,487.201 391.365,457.034 372.5,427C 373.793,426.51 375.127,426.343 376.5,426.5 Z"/>
  </g>
  <g>
    <path style="opacity:1" d="M 248.5,432.5 C 252.771,440.93 259.438,446.763 268.5,450C 290.726,456.474 312.726,455.808 334.5,448C 341.687,444.645 347.021,439.478 350.5,432.5C 350.5,444.5 350.5,456.5 350.5,468.5C 343.563,475.938 336.397,483.271 329,490.5C 326.63,487.961 324.13,485.628 321.5,483.5C 314.521,475.854 307.188,468.521 299.5,461.5C 291.812,468.521 284.479,475.854 277.5,483.5C 275.37,485.127 273.37,486.96 271.5,489C 270.5,489.667 269.5,489.667 268.5,489C 262.329,481.662 255.662,474.829 248.5,468.5C 248.5,456.5 248.5,444.5 248.5,432.5 Z" fill="#fefefe"/>
  </g>
  <g>
    <path style="opacity: 1; fill: url('#gradient-0');" d="M 321.5,483.5 C 318.91,483.918 316.577,484.918 314.5,486.5C 322.603,523.349 329.937,560.349 336.5,597.5C 331.332,597.934 326.332,598.6 321.5,599.5C 306.833,599.5 292.167,599.5 277.5,599.5C 272.342,598.542 267.009,597.875 261.5,597.5C 268.45,560.085 275.783,522.752 283.5,485.5C 281.297,485.396 279.297,484.73 277.5,483.5C 284.479,475.854 291.812,468.521 299.5,461.5C 307.188,468.521 314.521,475.854 321.5,483.5 Z"/>
  </g>
  <g>
    <path style="opacity:1" fill="#949692" d="M 350.5,391.5 C 350.833,391.5 351.167,391.5 351.5,391.5C 351.5,402.5 351.5,413.5 351.5,424.5C 357.69,424.177 363.69,424.51 369.5,425.5C 363.5,425.5 357.5,425.5 351.5,425.5C 350.837,482.177 351.504,538.51 353.5,594.5C 352.791,595.404 351.791,595.737 350.5,595.5C 350.5,553.167 350.5,510.833 350.5,468.5C 350.5,456.5 350.5,444.5 350.5,432.5C 350.5,421.167 350.5,409.833 350.5,398.5C 350.5,396.167 350.5,393.833 350.5,391.5 Z"/>
  </g>
  <g>
    <path style="opacity:1" fill="#838382" d="M 247.5,425.5 C 247.833,425.5 248.167,425.5 248.5,425.5C 248.5,427.833 248.5,430.167 248.5,432.5C 248.5,444.5 248.5,456.5 248.5,468.5C 248.5,510.833 248.5,553.167 248.5,595.5C 247.209,595.737 246.209,595.404 245.5,594.5C 247.496,538.51 248.163,482.177 247.5,425.5 Z"/>
  </g>
  <g>
    <path style="opacity:1" d="M 248.5,468.5 C 255.662,474.829 262.329,481.662 268.5,489C 269.5,489.667 270.5,489.667 271.5,489C 273.37,486.96 275.37,485.127 277.5,483.5C 279.297,484.73 281.297,485.396 283.5,485.5C 275.783,522.752 268.45,560.085 261.5,597.5C 257.106,597.156 252.772,596.49 248.5,595.5C 248.5,553.167 248.5,510.833 248.5,468.5 Z" fill="#ececed"/>
  </g>
  <g>
    <path style="opacity:1" d="M 350.5,468.5 C 350.5,510.833 350.5,553.167 350.5,595.5C 345.908,596.598 341.241,597.265 336.5,597.5C 329.937,560.349 322.603,523.349 314.5,486.5C 316.577,484.918 318.91,483.918 321.5,483.5C 324.13,485.628 326.63,487.961 329,490.5C 336.397,483.271 343.563,475.938 350.5,468.5 Z" fill="#ececed"/>
  </g>
</svg>